<svg width="27" height="30" viewBox="0 0 27 30" fill="none" xmlns="http://www.w3.org/2000/svg">
<path d="M14.553 0.192096L25.053 4.15482C25.625 4.37059 26.1178 4.75693 26.4658 5.2622C26.8137 5.76747 27.0001 6.36758 27 6.98232V15.0783C27.0001 17.6015 26.3019 20.0749 24.9839 22.2213C23.6658 24.3677 21.7799 26.1023 19.5375 27.2307L14.5065 29.7608C14.194 29.9181 13.8494 30 13.5 30C13.1506 30 12.806 29.9181 12.4935 29.7608L7.4625 27.2292C5.22006 26.1008 3.33415 24.3662 2.0161 22.2198C0.698057 20.0734 -5.34856e-05 17.6 5.85243e-07 15.0768V6.98383C-0.000381014 6.36883 0.185858 5.76839 0.533802 5.26282C0.881746 4.75726 1.3748 4.37068 1.947 4.15482L12.447 0.192096C13.1259 -0.0640321 13.8741 -0.0640321 14.553 0.192096ZM13.5 8.95538C13.1326 8.95542 12.778 9.09117 12.5034 9.33688C12.2289 9.58258 12.0535 9.92115 12.0105 10.2884L12 10.465V13.4842H9C8.61768 13.4846 8.24995 13.632 7.97195 13.8961C7.69394 14.1602 7.52665 14.5212 7.50424 14.9053C7.48184 15.2894 7.60601 15.6677 7.8514 15.9627C8.09678 16.2578 8.44486 16.4474 8.8245 16.4929L9 16.5034H12V19.5226C12.0004 19.9074 12.1468 20.2775 12.4093 20.5573C12.6717 20.8371 13.0304 21.0054 13.4121 21.028C13.7938 21.0505 14.1696 20.9256 14.4627 20.6786C14.7559 20.4316 14.9443 20.0813 14.9895 19.6993L15 19.5226V16.5034H18C18.3823 16.503 18.75 16.3557 19.0281 16.0915C19.3061 15.8274 19.4734 15.4664 19.4958 15.0823C19.5182 14.6982 19.394 14.32 19.1486 14.0249C18.9032 13.7298 18.5551 13.5402 18.1755 13.4948L18 13.4842H15V10.465C15 10.0646 14.842 9.68064 14.5607 9.39753C14.2794 9.11442 13.8978 8.95538 13.5 8.95538Z" fill="#B3C7FF"/>
</svg>
